<svg xmlns="http://www.w3.org/2000/svg" xmlns:xlink="http://www.w3.org/1999/xlink" width="500" zoomAndPan="magnify" viewBox="0 0 375 374.999991" height="500" preserveAspectRatio="xMidYMid meet" version="1.0"><defs><clipPath id="980a4f4c75"><path d="M 187.5 0 C 83.945312 0 0 83.945312 0 187.5 C 0 291.054688 83.945312 375 187.5 375 C 291.054688 375 375 291.054688 375 187.5 C 375 83.945312 291.054688 0 187.5 0 Z M 187.5 0 " clip-rule="nonzero"/></clipPath><clipPath id="dcdf96a316"><path d="M 42.773438 54.1875 L 329.730469 54.1875 L 329.730469 291 L 42.773438 291 Z M 42.773438 54.1875 " clip-rule="nonzero"/></clipPath></defs><g clip-path="url(#980a4f4c75)"><rect x="-37.5" width="450" fill="#5347ce" y="-37.499999" height="449.999989" fill-opacity="1"/></g><g clip-path="url(#dcdf96a316)"><path fill="#ffffff" d="M 187.878906 108.300781 L 91.316406 213.140625 L 116.195312 238.886719 L 136.328125 216.378906 L 160.628906 242.761719 L 116.773438 290.667969 L 42.773438 211.230469 L 187.878906 54.265625 L 332.058594 211.230469 L 258.640625 290.667969 L 215.074219 242.761719 L 238.214844 216.378906 L 259.21875 238.886719 L 283.519531 213.140625 Z M 187.878906 108.300781 " fill-opacity="1" fill-rule="nonzero"/></g></svg>